# xmcd
# 
# Track frame offsets:
#     150
#     21612
#     38457
#     62145
#     82545
#     102517
#     121562
#     137362
#     165645
#     190317
#     209022
#     234345
#     254695
#     271700
#     289327
#     326472
# 
# Disc length: 4795
# 
# Revision: 10
# Processed by: cddbd v1.5.2PL0 Copyright (c) Steve Scherf et al.
# Submitted via: fre:ac v1.0.27
# 
DISCID=da12b910
DTITLE=Various Artist - 青春歌年鑑 90年代総集編 DISC 2
DYEAR=2004
DGENRE=JPop
TTITLE0=H Jungle with t - GOING GOING HOME
TTITLE1=ウルフルズ - ガッツだぜ!!
TTITLE2=globe - DEPARTURES
TTITLE3=華原朋美 - I'm proud
TTITLE4=dos - Baby baby baby
TTITLE5=相川七瀬 - BREAK OUT!
TTITLE6=井上陽水奥田民生 - ありがとう
TTITLE7=安室奈美恵 - CAN YOU CELEBRATE?
TTITLE8=MAX - Give me a Shake
TTITLE9=Le Couple - ひだまりの詩
TTITLE10=SPEED - White Love
TTITLE11=DA PUMP - Rhapsody in Blue
TTITLE12=L'Arc-en-Ciel - HONEY
TTITLE13=浜崎あゆみ - Boys and Girls
TTITLE14=小柳ゆき - あなたのキスを数えましょう ～You were mine～
TTITLE15=b - a
EXTD=2004/11/3\nエイベックス AVCD-17559
EXTT0=
EXTT1=
EXTT2=
EXTT3=
EXTT4=
EXTT5=
EXTT6=
EXTT7=
EXTT8=
EXTT9=
EXTT10=
EXTT11=
EXTT12=
EXTT13=
EXTT14=
EXTT15=
PLAYORDER=
